HIERARCHY
ROOT Hips
{
	OFFSET -412.092468 -576.953125 89.101967
	CHANNELS 6 Xposition Yposition Zposition Zrotation Yrotation Xrotation
	JOINT Spine
	{
		OFFSET 0.000000 2.080078 8.814247
		CHANNELS 6 Xposition Yposition Zposition Zrotation Yrotation Xrotation
		JOINT Spine1
		{
			OFFSET 0.000000 0.000000 8.844139
			CHANNELS 6 Xposition Yposition Zposition Zrotation Yrotation Xrotation
			JOINT Spine2
			{
				OFFSET 0.000000 0.000000 11.682266
				CHANNELS 6 Xposition Yposition Zposition Zrotation Yrotation Xrotation
				JOINT Spine3
				{
					OFFSET 0.000000 0.000000 11.746696
					CHANNELS 6 Xposition Yposition Zposition Zrotation Yrotation Xrotation
					JOINT Neck
					{
						OFFSET 0.000000 0.000000 17.658264
						CHANNELS 6 Xposition Yposition Zposition Zrotation Yrotation Xrotation
						JOINT Neck1
						{
							OFFSET 0.000000 0.000000 5.101517
							CHANNELS 6 Xposition Yposition Zposition Zrotation Yrotation Xrotation
							JOINT Head
							{
								OFFSET 0.000000 0.000000 5.101517
								CHANNELS 6 Xposition Yposition Zposition Zrotation Yrotation Xrotation
								JOINT HeadEnd
								{
									OFFSET 0.000000 0.000000 11.655090
									CHANNELS 6 Xposition Yposition Zposition Zrotation Yrotation Xrotation
									End Site
									{
										OFFSET 0.000000 0.000000 0.100006
									}
								}
							}
						}
					}
					JOINT RightShoulder
					{
						OFFSET -2.625397 0.000000 11.175217
						CHANNELS 6 Xposition Yposition Zposition Zrotation Yrotation Xrotation
						JOINT RightArm
						{
							OFFSET 0.000000 0.000000 10.434708
							CHANNELS 6 Xposition Yposition Zposition Zrotation Yrotation Xrotation
							JOINT RightForeArm
							{
								OFFSET 0.000000 0.000000 29.628418
								CHANNELS 6 Xposition Yposition Zposition Zrotation Yrotation Xrotation
								JOINT RightHand
								{
									OFFSET 0.000000 0.000000 22.857605
									CHANNELS 6 Xposition Yposition Zposition Zrotation Yrotation Xrotation
									JOINT RightHandThumb1
									{
										OFFSET -2.867310 -2.944275 3.959564
										CHANNELS 6 Xposition Yposition Zposition Zrotation Yrotation Xrotation
										JOINT RightHandThumb2
										{
											OFFSET 0.000000 0.000000 3.350403
											CHANNELS 6 Xposition Yposition Zposition Zrotation Yrotation Xrotation
											JOINT RightHandThumb3
											{
												OFFSET 0.000000 0.000000 3.756516
												CHANNELS 6 Xposition Yposition Zposition Zrotation Yrotation Xrotation
												JOINT RightHandThumb4
												{
													OFFSET 0.000000 0.000000 3.147339
													CHANNELS 6 Xposition Yposition Zposition Zrotation Yrotation Xrotation
													End Site
													{
														OFFSET 0.000000 0.000000 0.100006
													}
												}
											}
										}
									}
									JOINT RightHandIndex1
									{
										OFFSET -0.086761 -2.345276 10.030899
										CHANNELS 6 Xposition Yposition Zposition Zrotation Yrotation Xrotation
										JOINT RightHandIndex2
										{
											OFFSET 0.000000 0.000000 4.061096
											CHANNELS 6 Xposition Yposition Zposition Zrotation Yrotation Xrotation
											JOINT RightHandIndex3
											{
												OFFSET 0.000000 0.000000 3.248871
												CHANNELS 6 Xposition Yposition Zposition Zrotation Yrotation Xrotation
												JOINT RightHandIndex4
												{
													OFFSET 0.000000 0.000000 2.639709
													CHANNELS 6 Xposition Yposition Zposition Zrotation Yrotation Xrotation
													End Site
													{
														OFFSET 0.000000 0.000000 0.100006
													}
												}
											}
										}
									}
									JOINT RightHandMiddle1
									{
										OFFSET 0.104095 -0.006775 9.502945
										CHANNELS 6 Xposition Yposition Zposition Zrotation Yrotation Xrotation
										JOINT RightHandMiddle2
										{
											OFFSET 0.000000 0.000000 4.568726
											CHANNELS 6 Xposition Yposition Zposition Zrotation Yrotation Xrotation
											JOINT RightHandMiddle3
											{
												OFFSET 0.000000 0.000000 3.654984
												CHANNELS 6 Xposition Yposition Zposition Zrotation Yrotation Xrotation
												JOINT RightHandMiddle4
												{
													OFFSET 0.000000 0.000000 2.741241
													CHANNELS 6 Xposition Yposition Zposition Zrotation Yrotation Xrotation
													End Site
													{
														OFFSET 0.000000 0.000000 0.100006
													}
												}
											}
										}
									}
									JOINT RightHandRing1
									{
										OFFSET 0.086761 2.267456 8.921707
										CHANNELS 6 Xposition Yposition Zposition Zrotation Yrotation Xrotation
										JOINT RightHandRing2
										{
											OFFSET 0.000000 0.000000 4.061096
											CHANNELS 6 Xposition Yposition Zposition Zrotation Yrotation Xrotation
											JOINT RightHandRing3
											{
												OFFSET 0.000000 0.000000 3.654984
												CHANNELS 6 Xposition Yposition Zposition Zrotation Yrotation Xrotation
												JOINT RightHandRing4
												{
													OFFSET 0.000000 0.000000 2.741241
													CHANNELS 6 Xposition Yposition Zposition Zrotation Yrotation Xrotation
													End Site
													{
														OFFSET 0.000000 0.000000 0.100006
													}
												}
											}
										}
									}
									JOINT RightHandPinky1
									{
										OFFSET -0.173492 4.467224 7.976990
										CHANNELS 6 Xposition Yposition Zposition Zrotation Yrotation Xrotation
										JOINT RightHandPinky2
										{
											OFFSET 0.000000 0.000000 3.350403
											CHANNELS 6 Xposition Yposition Zposition Zrotation Yrotation Xrotation
											JOINT RightHandPinky3
											{
												OFFSET 0.000000 0.000000 2.842758
												CHANNELS 6 Xposition Yposition Zposition Zrotation Yrotation Xrotation
												JOINT RightHandPinky4
												{
													OFFSET 0.000000 0.000000 2.639709
													CHANNELS 6 Xposition Yposition Zposition Zrotation Yrotation Xrotation
													End Site
													{
														OFFSET 0.000000 0.000000 0.100006
													}
												}
											}
										}
									}
									JOINT RightForeArmEnd
									{
										OFFSET 0.000000 0.000000 0.000000
										CHANNELS 6 Xposition Yposition Zposition Zrotation Yrotation Xrotation
										End Site
										{
											OFFSET 0.000000 0.000000 0.100006
										}
									}
								}
								JOINT RightArmEnd
								{
									OFFSET 0.000000 0.000000 0.000000
									CHANNELS 6 Xposition Yposition Zposition Zrotation Yrotation Xrotation
									End Site
									{
										OFFSET 0.000000 0.000000 0.100006
									}
								}
							}
						}
					}
					JOINT LeftShoulder
					{
						OFFSET 2.625397 0.000000 11.175217
						CHANNELS 6 Xposition Yposition Zposition Zrotation Yrotation Xrotation
						JOINT LeftArm
						{
							OFFSET 0.000000 0.000000 10.813629
							CHANNELS 6 Xposition Yposition Zposition Zrotation Yrotation Xrotation
							JOINT LeftForeArm
							{
								OFFSET 0.000000 0.000000 28.724777
								CHANNELS 6 Xposition Yposition Zposition Zrotation Yrotation Xrotation
								JOINT LeftHand
								{
									OFFSET 0.644379 0.328857 25.716171
									CHANNELS 6 Xposition Yposition Zposition Zrotation Yrotation Xrotation
									JOINT LeftHandThumb1
									{
										OFFSET 2.867310 -2.944275 3.959564
										CHANNELS 6 Xposition Yposition Zposition Zrotation Yrotation Xrotation
										JOINT LeftHandThumb2
										{
											OFFSET 0.000000 0.000000 3.350403
											CHANNELS 6 Xposition Yposition Zposition Zrotation Yrotation Xrotation
											JOINT LeftHandThumb3
											{
												OFFSET 0.000000 0.000000 3.756516
												CHANNELS 6 Xposition Yposition Zposition Zrotation Yrotation Xrotation
												JOINT LeftHandThumb4
												{
													OFFSET 0.000000 0.000000 3.100006
													CHANNELS 6 Xposition Yposition Zposition Zrotation Yrotation Xrotation
													End Site
													{
														OFFSET 0.000000 0.000000 0.100006
													}
												}
											}
										}
									}
									JOINT LeftHandIndex1
									{
										OFFSET 0.086761 -2.345276 10.030899
										CHANNELS 6 Xposition Yposition Zposition Zrotation Yrotation Xrotation
										JOINT LeftHandIndex2
										{
											OFFSET 0.000000 0.000000 4.061096
											CHANNELS 6 Xposition Yposition Zposition Zrotation Yrotation Xrotation
											JOINT LeftHandIndex3
											{
												OFFSET 0.000000 0.000000 3.248871
												CHANNELS 6 Xposition Yposition Zposition Zrotation Yrotation Xrotation
												JOINT LeftHandIndex4
												{
													OFFSET 0.000000 0.000000 2.639709
													CHANNELS 6 Xposition Yposition Zposition Zrotation Yrotation Xrotation
													End Site
													{
														OFFSET 0.000000 0.000000 0.100006
													}
												}
											}
										}
									}
									JOINT LeftHandMiddle1
									{
										OFFSET -0.104095 -0.006775 9.502945
										CHANNELS 6 Xposition Yposition Zposition Zrotation Yrotation Xrotation
										JOINT LeftHandMiddle2
										{
											OFFSET 0.000000 0.000000 4.568726
											CHANNELS 6 Xposition Yposition Zposition Zrotation Yrotation Xrotation
											JOINT LeftHandMiddle3
											{
												OFFSET 0.000000 0.000000 3.654984
												CHANNELS 6 Xposition Yposition Zposition Zrotation Yrotation Xrotation
												JOINT LeftHandMiddle4
												{
													OFFSET 0.000000 0.000000 2.741241
													CHANNELS 6 Xposition Yposition Zposition Zrotation Yrotation Xrotation
													End Site
													{
														OFFSET 0.000000 0.000000 0.100006
													}
												}
											}
										}
									}
									JOINT LeftHandRing1
									{
										OFFSET -0.086761 2.267456 8.921707
										CHANNELS 6 Xposition Yposition Zposition Zrotation Yrotation Xrotation
										JOINT LeftHandRing2
										{
											OFFSET 0.000000 0.000000 4.061096
											CHANNELS 6 Xposition Yposition Zposition Zrotation Yrotation Xrotation
											JOINT LeftHandRing3
											{
												OFFSET 0.000000 0.000000 3.654984
												CHANNELS 6 Xposition Yposition Zposition Zrotation Yrotation Xrotation
												JOINT LeftHandRing4
												{
													OFFSET 0.000000 0.000000 2.741241
													CHANNELS 6 Xposition Yposition Zposition Zrotation Yrotation Xrotation
													End Site
													{
														OFFSET 0.000000 0.000000 0.100006
													}
												}
											}
										}
									}
									JOINT LeftHandPinky1
									{
										OFFSET 0.173492 4.467224 7.976990
										CHANNELS 6 Xposition Yposition Zposition Zrotation Yrotation Xrotation
										JOINT LeftHandPinky2
										{
											OFFSET 0.000000 0.000000 3.350403
											CHANNELS 6 Xposition Yposition Zposition Zrotation Yrotation Xrotation
											JOINT LeftHandPinky3
											{
												OFFSET 0.000000 0.000000 2.842758
												CHANNELS 6 Xposition Yposition Zposition Zrotation Yrotation Xrotation
												JOINT LeftHandPinky4
												{
													OFFSET 0.000000 0.000000 2.639709
													CHANNELS 6 Xposition Yposition Zposition Zrotation Yrotation Xrotation
													End Site
													{
														OFFSET 0.000000 0.000000 0.100006
													}
												}
											}
										}
									}
									JOINT LeftForeArmEnd
									{
										OFFSET 0.000000 0.000000 0.000000
										CHANNELS 6 Xposition Yposition Zposition Zrotation Yrotation Xrotation
										End Site
										{
											OFFSET 0.000000 0.000000 0.100006
										}
									}
								}
								JOINT LeftArmEnd
								{
									OFFSET 0.000000 0.000000 0.000000
									CHANNELS 6 Xposition Yposition Zposition Zrotation Yrotation Xrotation
									End Site
									{
										OFFSET 0.000000 0.000000 0.100006
									}
								}
							}
						}
					}
				}
			}
		}
	}
	JOINT RightUpLeg
	{
		OFFSET -11.289948 0.000000 0.000000
		CHANNELS 6 Xposition Yposition Zposition Zrotation Yrotation Xrotation
		JOINT RightLeg
		{
			OFFSET 0.000000 0.000000 -38.200329
			CHANNELS 6 Xposition Yposition Zposition Zrotation Yrotation Xrotation
			JOINT RightFoot
			{
				OFFSET 0.000000 0.000000 -39.900856
				CHANNELS 6 Xposition Yposition Zposition Zrotation Yrotation Xrotation
				JOINT RightToeBase
				{
					OFFSET 0.000000 -15.261658 0.000001
					CHANNELS 6 Xposition Yposition Zposition Zrotation Yrotation Xrotation
					JOINT RightToeBaseEnd
					{
						OFFSET 0.000000 -7.370728 0.000000
						CHANNELS 6 Xposition Yposition Zposition Zrotation Yrotation Xrotation
						End Site
						{
							OFFSET 0.000000 0.000000 0.100000
						}
					}
				}
				JOINT RightLegEnd
				{
					OFFSET 0.000000 0.000000 0.000000
					CHANNELS 6 Xposition Yposition Zposition Zrotation Yrotation Xrotation
					End Site
					{
						OFFSET 0.000000 0.000000 0.100000
					}
				}
			}
			JOINT RightUpLegEnd
			{
				OFFSET 0.000000 0.000000 0.000000
				CHANNELS 6 Xposition Yposition Zposition Zrotation Yrotation Xrotation
				End Site
				{
					OFFSET 0.000000 0.000000 0.099998
				}
			}
		}
	}
	JOINT LeftUpLeg
	{
		OFFSET 11.315674 0.000000 0.000000
		CHANNELS 6 Xposition Yposition Zposition Zrotation Yrotation Xrotation
		JOINT LeftLeg
		{
			OFFSET 0.000000 0.000000 -38.200329
			CHANNELS 6 Xposition Yposition Zposition Zrotation Yrotation Xrotation
			JOINT LeftFoot
			{
				OFFSET 0.000000 0.000000 -39.900856
				CHANNELS 6 Xposition Yposition Zposition Zrotation Yrotation Xrotation
				JOINT LeftToeBase
				{
					OFFSET 0.000000 -15.261658 0.000001
					CHANNELS 6 Xposition Yposition Zposition Zrotation Yrotation Xrotation
					JOINT LeftToeBaseEnd
					{
						OFFSET 0.000000 -7.539978 0.000000
						CHANNELS 6 Xposition Yposition Zposition Zrotation Yrotation Xrotation
						End Site
						{
							OFFSET 0.000000 0.000000 0.100000
						}
					}
				}
				JOINT LeftLegEnd
				{
					OFFSET 0.000000 0.000000 0.000000
					CHANNELS 6 Xposition Yposition Zposition Zrotation Yrotation Xrotation
					End Site
					{
						OFFSET 0.000000 0.000000 0.100000
					}
				}
			}
			JOINT LeftUpLegEnd
			{
				OFFSET 0.000000 0.000000 0.000000
				CHANNELS 6 Xposition Yposition Zposition Zrotation Yrotation Xrotation
				End Site
				{
					OFFSET 0.000000 0.000000 0.099998
				}
			}
		}
	}
}
MOTION
Frames: 2
Frame Time: 0.016667
22.263855 -32.254150 85.751396 1.312811 2.119936 -18.336309 0.000012 2.080060 8.814243 0.656857 -1.692584 13.818064 0.000008 0.000020 8.844136 0.182972 -0.323286 6.670563 -0.000015 0.000008 11.682258 6.460347 2.102773 8.002932 -0.000007 -0.000067 11.746691 3.738637 3.289790 5.866702 -0.000004 -0.000025 17.658260 -4.081739 -7.383251 8.452053 0.000012 0.000009 5.101495 -2.386823 -0.483486 -1.050652 -0.000001 -0.000009 5.101530 -0.270101 -1.471813 -15.815774 -0.000007 0.000001 11.655076 -0.000000 -0.000000 -0.000000 -2.625381 0.000027 11.175202 20.995083 -72.375867 -0.109083 0.000061 0.000024 10.434700 54.162560 -33.510629 -31.724559 -0.000008 0.000038 29.628410 14.253774 1.611293 112.186888 0.000000 0.000015 22.857632 32.514221 -8.601612 36.922083 -2.867310 -2.944244 3.959579 32.315633 -13.910353 56.898683 0.000008 -0.000004 3.350426 -5.383828 4.498508 -10.250777 -0.000031 0.000042 3.756506 -3.652164 3.227249 -7.069940 -0.000023 -0.000008 3.147335 0.000000 0.000003 -0.000002 -0.086773 -2.345249 10.030899 -5.754291 18.102819 7.685232 -0.000009 -0.000022 4.061085 0.725330 0.044143 -0.039217 -0.000001 0.000050 3.248830 0.214050 -0.024661 -0.053165 0.000039 -0.000004 2.639708 0.000000 0.000001 -0.000001 0.104095 -0.006783 9.502985 -1.015437 14.474588 0.856794 -0.000012 -0.000027 4.568731 0.661254 0.055909 0.000156 0.000011 0.000009 3.654965 0.155564 -0.030808 0.002706 -0.000006 -0.000001 2.741226 0.000000 0.000003 0.000000 0.086769 2.267456 8.921684 5.672906 7.775040 -10.803621 -0.000013 -0.000003 4.061061 -1.156305 -0.021706 0.000615 -0.000015 -0.000000 3.654997 -0.129065 0.011312 0.000175 0.000003 0.000006 2.741247 -0.000001 -0.000001 -0.000001 -0.173492 4.467255 7.976975 10.101009 -0.938672 -29.444259 0.000017 -0.000021 3.350416 -1.954503 -5.072168 -0.988693 0.000008 -0.000069 2.842767 0.045239 -5.071918 -0.988672 -0.000000 0.000012 2.639683 -0.000003 -0.000002 -0.000000 0.000023 0.000005 0.000026 -0.000001 -0.000001 -0.000000 0.000024 0.000012 -0.000003 -0.000001 0.000002 -0.000000 2.625389 0.000027 11.175200 -12.089349 71.124181 -0.389483 0.000031 0.000011 10.813629 -45.760355 22.444203 -14.960129 -0.000034 -0.000038 28.724789 -14.150041 1.467391 124.711140 0.644304 0.328812 25.716118 -5.623113 -12.643433 37.205577 2.867310 -2.944260 3.959549 -32.415962 13.591537 57.445566 -0.000017 0.000011 3.350426 4.708417 -4.020509 -9.020750 -0.000025 0.000023 3.756504 3.201709 -2.871498 -6.226757 0.000008 -0.000007 3.100035 -0.000000 -0.000001 0.000001 0.086786 -2.345276 10.030899 -10.302290 -11.535990 33.344458 -0.000011 -0.000009 4.061098 0.570853 -0.000466 0.000032 0.000031 -0.000012 3.248878 0.070656 -0.000009 -0.000390 0.000013 -0.000015 2.639706 0.000002 0.000002 -0.000001 -0.104084 -0.006802 9.502951 -4.322173 -4.424221 17.260737 0.000022 0.000008 4.568725 0.530794 -0.000177 -0.000029 0.000013 -0.000023 3.654993 0.024543 0.000001 -0.000011 0.000013 -0.000080 2.741235 0.000002 0.000000 -0.000002 -0.086712 2.267482 8.921719 7.349034 14.692796 4.154977 -0.000005 -0.000005 4.061080 -0.949209 10.626115 0.655575 -0.000003 0.000014 3.655009 0.053114 10.626142 0.656013 -0.000013 -0.000074 2.741249 0.000003 0.000003 -0.000003 0.173531 4.467255 7.977001 22.136167 35.626540 -6.190492 0.000046 0.000003 3.350410 -1.018479 23.199987 4.778934 -0.000017 -0.000051 2.842770 0.981518 23.200005 4.778928 -0.000001 -0.000072 2.639699 0.000001 -0.000000 -0.000002 0.000040 0.000017 0.000006 0.000004 -0.000002 -0.000002 0.000012 -0.000004 -0.000014 -0.000000 -0.000000 0.000003 -11.289944 0.000073 -0.000010 1.810677 11.531676 -1.816634 0.000051 0.000029 -38.200306 0.511357 -0.455364 41.683996 -0.000001 0.000030 -39.900806 -25.137799 0.157305 30.339608 0.000051 -15.261620 -0.000019 0.696629 -4.075141 -27.990209 0.000043 -7.370792 -0.000000 0.000000 -0.000002 0.000001 0.000030 0.000067 -0.000001 -0.000001 -0.000001 -0.000000 0.000027 0.000060 0.000007 0.000000 0.000001 -0.000002 11.315674 -0.000023 0.000012 -3.711410 1.230066 2.235602 -0.000000 0.000048 -38.200371 -0.501562 0.373256 36.655610 -0.000014 0.000060 -39.900852 17.285995 -1.120041 6.947541 -0.000010 -15.261692 0.000016 -0.394158 -0.096260 -18.785764 -0.000010 -7.540036 0.000000 -0.000001 0.000000 -0.000000 -0.000009 0.000121 0.000003 0.000000 -0.000000 0.000002 0.000000 0.000059 -0.000001 0.000001 0.000000 0.000001 
22.345612 -32.315430 85.586159 1.239501 1.751788 -18.618076 0.000008 2.080070 8.814245 0.657139 -1.565631 14.030032 0.000004 0.000008 8.844143 0.172941 -0.283392 6.922174 -0.000002 -0.000015 11.682264 6.699555 2.322822 8.391009 -0.000014 -0.000055 11.746687 3.844447 3.433652 5.869468 -0.000013 -0.000021 17.658272 -2.858058 -5.046799 7.526162 0.000011 -0.000021 5.101510 -1.685987 -0.657642 -1.251884 0.000015 -0.000008 5.101498 -0.174846 -1.400257 -15.345941 0.000001 0.000001 11.655076 -0.000000 0.000000 -0.000000 -2.625374 -0.000019 11.175217 20.963522 -73.293264 -0.110326 0.000015 0.000006 10.434708 54.428849 -32.822870 -33.686087 0.000008 0.000031 29.628418 13.602569 1.667143 112.892126 -0.000019 -0.000023 22.857620 32.471652 -8.517968 37.241169 -2.867340 -2.944275 3.959595 32.315507 -13.910445 56.898481 0.000025 0.000000 3.350399 -5.383809 4.498532 -10.250548 0.000006 0.000025 3.756521 -3.652153 3.227415 -7.069952 -0.000045 0.000017 3.147348 -0.000002 -0.000003 0.000001 -0.086792 -2.345264 10.030884 -5.788312 17.867249 8.122474 -0.000008 -0.000000 4.061069 0.725882 0.019796 -0.039970 0.000014 -0.000022 3.248846 0.214695 -0.011042 -0.053402 -0.000004 0.000002 2.639708 -0.000000 0.000001 -0.000001 0.104101 -0.006795 9.502964 -1.074552 14.169040 1.156207 -0.000005 -0.000008 4.568750 0.661887 -0.000223 -0.000500 -0.000015 -0.000020 3.654961 0.155928 0.000002 0.002826 0.000001 -0.000003 2.741279 0.000000 0.000001 0.000000 0.086723 2.267536 8.921715 5.598630 7.333208 -10.644735 -0.000012 -0.000010 4.061092 -1.156665 -0.000303 0.000132 0.000034 0.000005 3.654960 -0.129395 0.000000 0.000155 -0.000001 -0.000003 2.741228 -0.000000 0.000001 -0.000001 -0.173525 4.467239 7.976977 10.037859 -1.366859 -29.437309 -0.000015 -0.000058 3.350411 -1.951010 -5.363835 -1.045754 -0.000025 -0.000007 2.842756 0.048971 -5.363920 -1.045680 0.000040 0.000001 2.639697 -0.000001 0.000000 -0.000002 0.000014 0.000001 0.000020 0.000000 0.000005 -0.000000 0.000033 -0.000006 -0.000008 0.000001 0.000003 0.000002 2.625397 -0.000006 11.175201 -11.486088 71.445479 -0.376167 0.000008 0.000009 10.813614 -48.179178 22.427459 -15.844757 0.000015 0.000008 28.724770 -13.609605 1.619061 125.688158 0.644325 0.328804 25.716179 -9.535298 -13.023016 38.181140 2.867348 -2.944260 3.959557 -32.415951 13.591557 57.445381 -0.000021 0.000019 3.350433 4.708396 -4.020504 -9.020685 -0.000009 -0.000004 3.756529 3.201701 -2.871550 -6.226644 -0.000014 -0.000002 3.100013 0.000002 0.000000 -0.000001 0.086758 -2.345268 10.030884 -10.535749 -12.202676 31.851221 -0.000006 0.000028 4.061107 0.573448 -0.000337 0.000033 0.000030 -0.000007 3.248871 0.073456 -0.000004 -0.000433 -0.000009 -0.000024 2.639703 0.000002 -0.000000 -0.000001 -0.104097 -0.006742 9.502930 -4.487348 -5.278859 16.097035 0.000010 -0.000013 4.568748 0.531674 -0.000160 -0.000029 0.000015 0.000009 3.654981 0.025146 -0.000000 -0.000011 0.000007 -0.000016 2.741237 0.000001 -0.000002 0.000000 -0.086750 2.267475 8.921719 7.239020 14.216143 3.238725 0.000008 -0.000015 4.061125 -0.943313 10.237733 0.632928 0.000039 0.000023 3.654995 0.056692 10.237718 0.632930 -0.000004 -0.000008 2.741248 0.000001 0.000000 -0.000001 0.173523 4.467209 7.976967 22.263811 36.023394 -6.505765 -0.000031 0.000091 3.350418 -0.998376 23.419750 4.829760 -0.000008 0.000010 2.842785 1.001650 23.419768 4.829763 0.000013 -0.000066 2.639714 0.000000 -0.000000 -0.000002 -0.000006 -0.000003 -0.000007 0.000000 -0.000004 -0.000002 0.000017 -0.000011 0.000013 0.000002 -0.000002 0.000002 -11.289964 0.000059 -0.000010 0.477576 12.254101 -1.678107 0.000029 0.000081 -38.200317 0.447088 -0.398880 41.737264 0.000065 0.000039 -39.900822 -25.489706 -0.728461 29.448897 0.000009 -15.261652 -0.000002 0.727843 -3.672080 -27.339367 0.000040 -7.370767 -0.000000 -0.000003 -0.000002 -0.000003 0.000017 0.000074 0.000002 -0.000002 -0.000001 -0.000001 0.000035 0.000062 -0.000002 -0.000000 0.000002 0.000001 11.315689 -0.000025 0.000005 -3.536177 1.656259 2.389172 -0.000007 -0.000013 -38.200375 -0.501661 0.377377 36.987988 -0.000019 0.000106 -39.900845 17.356890 -1.045416 6.671520 -0.000002 -15.261728 0.000030 -0.407327 -0.085885 -18.695312 -0.000006 -7.539981 0.000001 0.000000 0.000000 -0.000000 -0.000002 0.000055 -0.000002 0.000001 0.000001 0.000000 -0.000001 0.000000 0.000009 0.000000 0.000000 -0.000002 
